<!DOCTYPE svg PUBLIC "-//W3C//DTD SVG 1.1//EN" "http://www.w3.org/Graphics/SVG/1.1/DTD/svg11.dtd">

<!-- Uploaded to: SVG Repo, www.svgrepo.com, Transformed by: SVG Repo Mixer Tools -->
<svg width="48px" height="48px" viewBox="0 0 1024 1024" class="icon" xmlns="http://www.w3.org/2000/svg" fill="#000000" transform="matrix(-1, 0, 0, 1, 0, 0)">

<g id="SVGRepo_bgCarrier" stroke-width="0"/>

<g id="SVGRepo_tracerCarrier" stroke-linecap="round" stroke-linejoin="round"/>

<g id="SVGRepo_iconCarrier">

<path fill="#74a7fe" d="M96 896a32 32 0 01-32-32V160a32 32 0 0132-32h832a32 32 0 0132 32v704a32 32 0 01-32 32H96zm315.52-228.48l-68.928-68.928a32 32 0 00-45.248 0L128 768.064h778.688l-242.112-290.56a32 32 0 00-49.216 0L458.752 665.408a32 32 0 01-47.232 2.112zM256 384a96 96 0 10192.064-.064A96 96 0 00256 384z"/>

</g>

</svg>
